<svg width="189" height="81" viewBox="0 0 189 81" fill="none" xmlns="http://www.w3.org/2000/svg">
<path d="M100.626 25.4063C99.5342 24.7729 97.5151 23.6289 97.5151 23.6289L99.5819 16.7202H128.47L127.093 21.3493H104.79C105.754 21.8821 112.345 25.5646 112.345 25.5646C112.345 25.5646 104.077 29.0427 102.682 29.6369H124.61L123.23 34.2625H94.3363L96.4659 27.1428C96.4659 27.1428 99.283 25.963 100.626 25.4063ZM128.989 25.076L131.485 16.7197H160.376L157.687 25.7241L150.116 28.8166C143.288 26.5643 136.174 25.3046 128.989 25.076ZM135.353 25.0874H147.185C147.287 25.0431 151.84 23.1006 152.137 22.9814C152.215 22.7074 152.426 22.0281 152.623 21.3505H136.477C136.331 21.8288 135.598 24.2958 135.353 25.0874ZM133.945 29.8113C132.026 29.2784 130.043 28.812 127.997 28.3931L126.239 34.2633H132.608C132.608 34.2633 133.697 30.6183 133.945 29.8113ZM5.25054 16.7199L0 34.2622H6.33054L11.5726 16.7199H5.25054ZM65.5535 16.7206H59.1839C59.1839 16.7206 58.6031 18.6699 58.503 19.0172C58.2092 19.1806 48.9172 24.4941 48.5673 24.695C48.2617 24.4243 42.7921 19.688 42.2776 19.2487C42.4491 18.6869 43.04 16.7206 43.04 16.7206H36.6585L35.3544 21.1147C35.3544 21.1147 43.8008 28.4557 44.3374 28.9154C44.1183 29.6526 42.7394 34.2629 42.7394 34.2629H49.109C49.109 34.2629 50.5439 29.4551 50.6628 29.0635C50.9617 28.8984 64.1763 21.3172 64.1763 21.3172L65.5535 16.7206ZM96.6575 16.7191H67.7798L62.5173 34.2631H68.8937L72.7586 21.3498H88.9093C88.8227 21.6222 88.5576 22.5024 88.4676 22.802C88.1858 22.9161 83.1493 25.0425 83.0353 25.0868H73.2933L71.911 29.7107H84.0678L94.0273 25.5141L96.6575 16.7191ZM27.7277 16.7199C27.7277 16.7199 25.9818 22.5679 25.797 23.1757H11.3054L9.91291 27.8082H24.4147C24.053 28.9999 22.4823 34.2622 22.4823 34.2622H28.8516L34.0937 16.7199H27.7277Z" fill="#0A0B13"/>
<path d="M188.668 68.7697C185.241 57.7762 178.905 47.9203 170.333 40.2515C177.657 33.0339 181.961 23.2882 182.368 13C182.368 13 179.646 24.8594 165.052 36.1792C143.345 21.366 117.38 25.5745 117.38 25.5745C132.482 26.6558 147.055 31.5993 159.71 39.9332C146.038 48.643 124.372 56.156 90.2286 56.4063C90.2286 56.4063 139.102 63.7899 165.716 44.1757C174.739 50.9685 182.507 59.292 188.668 68.7697Z" fill="#0A0B13"/>
</svg>
