<svg width="81" height="81" viewBox="0 0 81 81" fill="none" xmlns="http://www.w3.org/2000/svg">
<path d="M80.2075 42.0023C80.2688 42.0023 60.9291 30.9135 60.8724 30.5874C60.4349 28.2306 59.8839 24.3387 57.216 22.3253C54.92 20.6076 39.4203 13.5196 39.3896 13.4456C36.5357 9.15646 34.0069 4.66219 31.8234 0C29.7501 1.55162 28.0637 3.55695 26.895 5.86065C25.7263 8.16438 25.1067 10.7046 25.0839 13.2847C17.4699 14.3697 10.3236 17.5868 4.48028 22.5601C19.6345 19.1074 23.9992 22.2905 23.9992 22.2905C19.0378 23.1693 14.257 24.859 9.85094 27.2913C3.39127 30.8223 0.478516 35.0622 0.478516 35.0622C0.478516 35.0622 15.1472 30.8918 26.4048 34.949C21.155 35.6854 16.2752 38.0573 12.4663 41.7241C35.7989 44.5984 47.3057 64.732 52.1472 81C53.9273 52.065 39.4377 41.0762 39.4377 41.0762C43.6451 41.3762 48.9369 44.6287 52.322 49.4689C62.6437 48.3121 68.3904 51.4561 68.3424 51.4561C68.2286 51.4561 73.923 49.7165 77.9377 47.8772C77.5924 47.3598 76.1403 45.5637 75.3138 44.5593C75.4272 44.5681 78.6025 44.3811 80.2075 42.0023ZM47.9793 29.1959C48.2067 29.1395 53.2625 27.7262 54.7058 28.2698C56.0176 28.7612 56.0439 32.4747 56.0439 32.4747C56.0439 32.4747 53.048 32.8923 47.9793 29.1959Z" fill="#0A0B13"/>
</svg>
