<svg width="133" height="81" viewBox="0 0 133 81" fill="none" xmlns="http://www.w3.org/2000/svg">
<path d="M121.507 56.2924L128.899 57.5337L129.354 62.161H118.381L118.575 60.4098L126.433 60.094V59.2516L118.891 57.9604L119.345 53.3331H128.484L128.661 55.173L121.651 55.439L121.507 56.2924ZM58.0212 58.509L58.1321 56.7634H63.1362L63.441 62.161H51.9697L52.8675 53.2555H62.8924L63.0143 55.0954L55.256 55.2727L55.0066 60.1605L60.648 60.3156V58.5645L58.0212 58.509V58.509ZM106.455 58.5811V60.1272L113.637 60.3045V62.0502H103.424L103.723 53.1447H113.421V54.9513L106.228 55.1065V56.647H111.681V58.3982L106.455 58.5811V58.5811ZM76.9017 62.1278H79.9829L77.5445 53.2223H70.357L67.9353 62.1278H71.0165L71.4875 59.8834H76.4861L76.9017 62.1278ZM71.82 58.1821L72.4351 55.2727L75.3999 55.1342L76.0317 58.0712L71.82 58.1821V58.1821ZM98.6583 62.1278L97.7495 53.2223H95.1726L91.4597 57.4672L87.7578 53.2223H85.1588L84.2333 62.1278H87.32L87.6193 56.3644L91.4708 60.2879L95.3277 56.3644L95.627 62.1278H98.6583V62.1278ZM75.7546 48.1627H67.758L65.6355 38.4427L60.5039 41.2357L60.3266 48.1738H53.1945L55.4 26.4228L50.8392 26.578L51.5042 20.604H71.8588L74.685 33.5383L70.5399 35.7827L75.749 48.1572L75.7546 48.1627ZM66.7937 26.0515L60.9417 26.2455L60.709 34.7242L67.4587 31.5765L66.7937 26.0515ZM85.6686 20.593H79.606L79.0463 48.1517H86.3946L85.6686 20.593ZM132.368 20.593L133 26.6223L125.569 26.3785L127.741 48.1517H120.393L119.778 26.1679L113.804 25.9739L113.648 20.5819L132.368 20.593V20.593ZM91.4708 20.6207H110.407L111.759 48.1627H90.7171L91.4708 20.6207V20.6207ZM97.8326 42.405L104.538 42.1999V26.4228L97.5278 26.2177L97.8326 42.405V42.405ZM0 32.2748L26.0514 20L41.291 23.6797L38.5755 50.6232H30.8615L29.4318 30.9947L28.6005 31.2551L27.1763 50.6232H21.3243L18.5369 34.3418L17.7056 34.5912L17.9162 50.6232H12.3967L9.23796 37.2124L8.40671 37.4784L9.34879 50.6399H4.04542L0 32.2748ZM19.6729 53.2777L21.5792 58.2098L37.3564 62.1111L38.1821 54.242L19.6729 53.2777V53.2777Z" fill="#0A0B13"/>
</svg>
