<svg width="151" height="81" viewBox="0 0 151 81" fill="none" xmlns="http://www.w3.org/2000/svg">
<path d="M77.128 53.0003L76.3784 51.5067V43.0499H81.3782L82.8778 43.8026V37.296L81.3779 38.049L76.3784 38.0498V33.0001H83.8795L85.3777 33.7522V28H70.6279L71.378 29.4947V51.5052L70.6279 52.9996L77.128 53.0003Z" fill="#0A0B13"/>
<path d="M139.668 53L138.918 51.5065V39.5568L144.167 52.9999H150.168L149.418 51.5063V29.4942L150.168 28.0003H143.668L144.418 29.495V41.448L139.167 28H133.168L133.918 29.4947V51.5052L133.168 52.9996L139.668 53Z" fill="#0A0B13"/>
<path fill-rule="evenodd" clip-rule="evenodd" d="M123.905 53.0063L127.405 49.5074L127.405 31.5072L123.905 28.0073H115.405L111.905 31.5072V49.5074L115.405 53.0063H123.905ZM116.905 33.0067H122.405V48.0062H116.905V33.0067Z" fill="#0A0B13"/>
<path d="M101.15 51.5068L101.9 53.0003L95.3995 53.0004L96.1496 51.506V33.0006H92.1594L90.6611 33.7527V28.0005H106.65V33.7527L105.151 33.0006H101.15V51.5068Z" fill="#0A0B13"/>
<path fill-rule="evenodd" clip-rule="evenodd" d="M64.3275 51.6242L64.9635 52.9999H58.7137L59.004 51.1523L58.3697 48.7119H51.5574L50.9229 51.1523L51.2137 52.9999H44.9639L45.5996 51.6242L51.5103 29.4525L50.9635 28.0005H58.9635L58.417 29.4525L64.3275 51.6242ZM54.9638 35.6072L52.805 43.9118H57.1223L54.9638 35.6072Z" fill="#0A0B13"/>
<path fill-rule="evenodd" clip-rule="evenodd" d="M23.4834 28.007L24.2335 29.5015V51.5119L23.4834 53.0061H29.9834L29.2336 51.5125V45.6841H30.9894L33.0849 51.39L32.9844 53.0061H39.7342L38.4105 51.0966L36.1512 45.2667L39.2334 42.1848L39.2342 31.5067L35.7341 28.0068L23.4834 28.007ZM29.2336 33.0068H34.2342V40.6844H29.2336V33.0068Z" fill="#0A0B13"/>
<path d="M16.7249 51.0765L18.2496 53.0001L10.9998 53.0003L11.076 51.7753L6.55923 42.4473H5.74991V51.5068L6.49973 53.0004H0L0.750107 51.5059V29.4954L0 28.0007H6.49973L5.74991 29.4946V37.4471H6.61844L11.0741 29.1925L10.9999 28.0005H17.4998L16.2878 29.5368L10.8797 39.3012L16.7249 51.0765Z" fill="#0A0B13"/>
</svg>
