<svg width="107" height="81" viewBox="0 0 107 81" fill="none" xmlns="http://www.w3.org/2000/svg">
<path d="M37.3781 57.8839H46.045L51.4626 24.5948H42.7948L37.3781 57.8839Z" fill="#0A0B13"/>
<path d="M21.8244 47.4913L30.087 24.5948H39.4146L25.6258 57.8848H16.5956L9.06581 28.9634C4.17717 26.0276 0 25.1585 0 25.1585L0.160284 24.594H13.82C17.5786 24.594 17.9313 27.5913 17.9313 27.5913L20.8475 42.5617C20.8475 42.5617 20.8474 42.5613 20.8471 42.5605L21.8244 47.4913Z" fill="#0A0B13"/>
<path fill-rule="evenodd" clip-rule="evenodd" d="M106.215 57.8839H98.2565L97.2413 52.9392H86.2236L84.4169 57.8839H75.3822L88.3082 27.0748C88.3082 27.0748 89.0918 24.5939 92.3091 24.5939H99.276L106.215 57.8839ZM93.2734 33.6508L88.7196 46.1084H95.8353L93.2734 33.6508Z" fill="#0A0B13"/>
<path d="M77.2967 25.4515L76.0599 32.6001C72.3511 30.5565 63.9104 30.073 63.9095 33.837C63.9095 35.3323 65.8193 36.3607 68.1211 37.6001C71.612 39.4799 76.0047 41.8452 76.0047 47.0612C76.0047 55.396 67.0822 58.4583 61.1678 58.4583C55.2551 58.4583 51.3851 56.5785 51.3851 56.5785L52.6736 49.104C56.2221 51.9526 66.9745 52.762 66.9745 48.2447C66.9745 46.3465 64.8578 45.227 62.4034 43.9289C59.0167 42.1379 54.987 40.0067 54.987 35.0204C54.987 25.8798 65.2007 24 69.5016 24C73.4802 24 77.2967 25.4515 77.2967 25.4515Z" fill="#0A0B13"/>
</svg>
