<svg width="157" height="81" viewBox="0 0 157 81" fill="none" xmlns="http://www.w3.org/2000/svg">
<path d="M39.788 39.044C40.7298 37.7795 42.2304 37.0373 44.0423 37.0373C46.0358 37.0373 47.5479 38.1755 48.3291 39.855L38.6666 43.8636C38.4022 41.8071 38.9286 40.1978 39.788 39.044Z" fill="#0A0B13"/>
<path d="M84.2227 43.0469C84.2227 39.7164 86.4643 37.3759 89.5533 37.3759C92.5843 37.3759 94.9594 39.867 94.9594 43.0469C94.9594 46.312 92.7172 48.7171 89.6281 48.7171C86.5977 48.7171 84.2227 46.2261 84.2227 43.0469Z" fill="#0A0B13"/>
<path d="M132.136 37.3759C129.047 37.3759 126.806 39.7164 126.806 43.0469C126.806 46.2261 129.181 48.7171 132.211 48.7171C135.3 48.7171 137.542 46.312 137.542 43.0469C137.542 39.867 135.167 37.3759 132.136 37.3759Z" fill="#0A0B13"/>
<path fill-rule="evenodd" clip-rule="evenodd" d="M0 67.3333V15H157V67.3333H0ZM14.571 53.1172H32.7476V48.0389H20.1763V26.9523H14.571V53.1172ZM50.4139 46.9247C48.0857 48.6471 46.7557 49.0588 44.6331 49.0588C42.7226 49.0588 41.2274 48.4656 40.1726 47.4253L54.3124 41.5592C54.0041 39.373 53.1748 37.421 51.8977 35.9363C50.0401 33.7779 47.29 32.6366 43.9426 32.6366C37.8607 32.6366 33.2746 37.1235 33.2746 43.049C33.2746 49.1279 37.8709 53.4597 44.5513 53.4597C48.2942 53.4597 52.1213 51.6856 53.911 49.6135L50.4139 46.9247ZM71.0466 53.1172H76.5775V40.6311C76.5775 35.9994 73.2637 32.6375 68.3976 32.6375C66.079 32.6375 63.4416 33.7123 61.8301 35.8645L61.8313 35.8606L61.8301 35.8621L61.8313 32.9749H56.2996V53.1172H61.8301V41.6565C61.8301 39.5935 63.429 37.4012 66.39 37.4012C68.6788 37.4012 71.0466 38.9925 71.0466 41.6565V53.1172ZM78.7656 43.0472C78.7656 48.9506 83.5043 53.4567 89.5532 53.4567C95.6438 53.4567 100.415 48.8833 100.415 43.0472C100.415 37.1427 95.6762 32.6366 89.628 32.6366C83.5371 32.6366 78.7656 37.2097 78.7656 43.0472ZM99.5695 32.9764L107.858 53.1112H113.918L122.205 32.9764H115.888L110.888 46.6969L105.888 32.9764H99.5695ZM121.349 43.0472C121.349 48.9506 126.087 53.4567 132.136 53.4567C138.227 53.4567 142.998 48.8833 142.998 43.0472C142.998 37.1427 138.259 32.6366 132.211 32.6366C126.12 32.6366 121.349 37.2097 121.349 43.0472ZM144.309 50.7259H145.204V50.2175H142.859V50.7259H143.754V53.1172H144.309V50.7259ZM148.207 53.1172H148.744V50.2175H148.169L147.294 51.5919L146.418 50.2175H145.825V53.1172H146.362V51.0552L147.256 52.4489H147.313L148.207 51.0552V53.1172Z" fill="#0A0B13"/>
</svg>
